# xmcd
#
# Track frame offsets:
#	150
#	11179
#	19027
#	37348
#	52521
#	62754
#	72598
#	84554
#	93127
#	101962
#	113150
#	124746
#	135647
#	150920
#	161228
#	176335
#	186588
#	195914
#	206782
#	219405
#
# Disc length: 3044 seconds
#
# Revision: 0
# Processed by: cddbd v1.5.2PL0 Copyright (c) Steve Scherf et al.
# Submitted via: audiograbber 1.83.01
#
DISCID=180be214
DTITLE=Delbert McClinton - Honky Tonkin' All Night
DYEAR=2009
DGENRE=Blues
TTITLE0=If You Really Want Me To, I'll Go
TTITLE1=Lover In Demand
TTITLE2=Wake Up Baby
TTITLE3=Twist and Shout - La Bamba
TTITLE4=I Lost My Love Today
TTITLE5=Picture of You
TTITLE6=Don't Cry No More (Feel Alright)
TTITLE7=Lose Your Money
TTITLE8=I Cry 'Cause I Care
TTITLE9=Mr. Pitiful
TTITLE10=These Boots Are Made For Walkin'
TTITLE11=Lost In a Dream
TTITLE12=Lord Knows I've Tried
TTITLE13=It's Over
TTITLE14=This Boy
TTITLE15=Except For You
TTITLE16=I Ain't Never
TTITLE17=Cryin' Over You
TTITLE18=You Got Me Hummin'
TTITLE19=Tina
EXTD=Newly released collection of early Delbert McClinton recordings
EXTT0=
EXTT1=
EXTT2=
EXTT3=
EXTT4=
EXTT5=
EXTT6=
EXTT7=
EXTT8=
EXTT9=
EXTT10=
EXTT11=
EXTT12=
EXTT13=
EXTT14=
EXTT15=
EXTT16=
EXTT17=
EXTT18=
EXTT19=
PLAYORDER=
